<svg width="123" height="122" viewBox="0 0 123 122" fill="none" xmlns="http://www.w3.org/2000/svg"><path d="M48.6829 33.6976L53.1978 21.7269C53.6629 20.4937 53.2544 19.1092 52.1924 18.3194L51.3638 17.7031" stroke="white"/>
<path d="M45.1167 52.6316L20.8262 55.9629C20.0342 56.0715 19.2321 55.8667 18.5955 55.3932L14.6454 52.4556" stroke="#3884C5" stroke-width="2"/>
<path d="M61.8188 102.982C61.8188 111.501 68.8491 118.5 77.6372 118.5C86.4253 118.5 93.4556 111.501 93.4556 102.982C93.4555 94.4639 86.4252 87.4649 77.6372 87.4648C68.8491 87.4648 61.8189 94.4638 61.8188 102.982Z" stroke="white" stroke-width="7"/>
<path d="M56.8267 39.7543L42.6208 29.1896C41.6706 28.4829 41.0887 27.3963 41.0317 26.2224L40.3062 11.2788" stroke="#3884C5" stroke-width="3"/>
<path d="M60.9664 66.3585L36.68 69.4331" stroke="#3884C5" stroke-width="3"/>
<path d="M64.2742 77.6717L61.0226 77.9766C59.3311 78.1352 57.7825 78.9878 56.7559 80.3256L51.7761 86.8148" stroke="#3884C5" stroke-width="3"/>
<path d="M114.875 59.8057L97.9955 49.9677C97.5339 49.6986 97.1888 49.2719 97.026 48.7687L91.5833 31.9542C90.1575 27.5495 87.7667 23.5066 84.5797 20.1113L72.5144 7.25748C69.8206 4.3876 65.0647 4.94791 63.1349 8.36253L61.2184 11.7535C54.6663 23.3469 52.7835 36.9422 55.9439 49.8391L56.827 55.5501C58.2679 64.8673 61.5177 73.8243 66.3989 81.9318C72.5102 92.0824 80.8102 100.789 90.713 107.436L101.34 114.57C104.661 116.8 108.958 117.055 112.528 115.236L119.636 111.613C121.668 110.578 122.546 108.177 121.651 106.105L116.84 94.9643C116.728 94.7064 116.78 94.4083 116.971 94.2009L119.149 91.8416C119.286 91.6928 119.354 91.4941 119.336 91.2939L118.942 87.0453C118.905 86.6373 118.528 86.3431 118.116 86.3996L114.549 86.8888C113.984 86.9663 113.552 86.404 113.781 85.8898L115.784 81.3938C116.179 80.5067 116.093 79.4832 115.555 78.6721L112.524 74.0999C111.683 72.8328 111.741 71.1831 112.668 69.9758L116.412 65.096C116.827 64.5551 117.032 63.8857 116.99 63.2091C116.901 61.7997 116.109 60.525 114.875 59.8057Z" fill="#3884C5" stroke="#3884C5"/>
<path d="M37.036 4.84164C35.8716 6.35913 36.172 8.52874 37.726 9.68447C39.28 10.84 41.4814 10.531 42.6459 9.01368C43.8103 7.49627 43.5105 5.32725 41.9566 4.17144C40.4025 3.01568 38.2005 3.32415 37.036 4.84164Z" stroke="#3884C5" stroke-width="3"/>
<path d="M6.91626 23.3217C4.26939 26.7709 4.95862 31.6897 8.47494 34.3047C11.9913 36.9196 16.9852 36.2274 19.632 32.7783C22.2785 29.3292 21.5895 24.4116 18.0735 21.7966C14.5573 19.1817 9.5632 19.8728 6.91626 23.3217Z" stroke="#3884C5" stroke-width="3"/>
<path d="M6.36158 45.8445C4.63753 48.0912 5.08601 51.2952 7.37639 52.9988C9.66706 54.7023 12.9211 54.2517 14.6452 52.005C16.369 49.7582 15.9195 46.5543 13.629 44.8509C11.3385 43.1477 8.08569 43.5982 6.36158 45.8445Z" stroke="white" stroke-width="2"/>
<path d="M24.7707 67.7716C22.7308 70.4302 23.2611 74.2228 25.9743 76.2406C28.6874 78.2583 32.5382 77.7239 34.5784 75.0656C36.6186 72.407 36.0887 68.6137 33.3755 66.5959C30.6623 64.5781 26.8109 65.1131 24.7707 67.7716Z" stroke="#3884C5" stroke-width="3"/>
<path d="M43.1371 88.035C41.4609 90.2192 41.8958 93.3375 44.1272 94.9969C46.3585 96.656 49.5236 96.2152 51.1997 94.0311C52.8757 91.847 52.4414 88.7293 50.2103 87.0698C47.979 85.4104 44.8132 85.8508 43.1371 88.035Z" stroke="#3884C5" stroke-width="3"/>
<path d="M56.6988 55.3983L53.0784 55.8948C51.475 56.1147 49.8517 55.692 48.572 54.7215L19.9636 33.0254" stroke="#3884C5" stroke-width="5"/>
<ellipse cx="2.88715" cy="2.89955" rx="2.88715" ry="2.89955" transform="matrix(-0.608791 0.79333 0.802423 0.596755 48.4683 11.9521)" fill="white"/>
</svg>
